<svg xmlns="http://www.w3.org/2000/svg" width="400" height="400" fill="none" viewBox="0 0 400 400">
  <rect width="400" height="400" fill="#3B4252" rx="30"/>
  <path fill="#ECEFF4" d="M310.126 205.209c5.004-5.588 8.275-12.393 9.446-19.652.903-5.686 3.454-11.02 7.365-15.401 3.911-4.38 9.028-7.634 14.775-9.395l5.11-1.582a4.559 4.559 0 0 0 2.68-2.191c.553-1.04.65-2.247.269-3.354a4.465 4.465 0 0 0-2.3-2.554 4.82 4.82 0 0 0-3.521-.256l-5.11 1.576a33.967 33.967 0 0 1-17.749.676c-5.867-1.353-11.221-4.239-15.46-8.334-5.425-5.218-12.27-8.893-19.765-10.611 8.782-18.163 11.887-37.158 8.511-52.814a4.376 4.376 0 0 0-1.806-2.67 4.778 4.778 0 0 0-3.225-.81c-16.672 1.757-34.647 10.453-50.089 24.022-4.03-6.265-9.812-11.337-16.697-14.648-5.393-2.573-9.926-6.53-13.089-11.423-3.162-4.894-4.829-10.532-4.813-16.279v-5.115a4.292 4.292 0 0 0-1.351-3.107A4.73 4.73 0 0 0 200.046 50a4.733 4.733 0 0 0-3.262 1.287 4.29 4.29 0 0 0-1.35 3.107v5.115c.019 5.753-1.647 11.396-4.812 16.294-3.165 4.899-7.703 8.858-13.103 11.432-6.885 3.31-12.667 8.383-16.696 14.648-15.442-13.576-33.418-22.265-50.09-24.023a4.78 4.78 0 0 0-3.225.81 4.375 4.375 0 0 0-1.806 2.67c-3.376 15.656-.27 34.628 8.512 52.815-7.493 1.711-14.338 5.377-19.766 10.587-4.239 4.094-9.593 6.98-15.46 8.333a33.976 33.976 0 0 1-17.748-.675l-5.099-1.576a4.817 4.817 0 0 0-3.573.207 4.581 4.581 0 0 0-1.444 1.064 4.344 4.344 0 0 0-.898 1.515 4.2 4.2 0 0 0 .3 3.399 4.46 4.46 0 0 0 1.151 1.351 4.7 4.7 0 0 0 1.611.819l5.11 1.582c5.747 1.761 10.864 5.015 14.775 9.395 3.911 4.381 6.462 9.715 7.365 15.401 1.166 7.257 4.43 14.062 9.427 19.652-18.326 9.796-32.538 23.436-39.469 37.961a4.202 4.202 0 0 0-.172 3.18 4.447 4.447 0 0 0 2.128 2.456c11.389 6.164 26.013 9.375 41.818 9.375 4.522-.006 9.039-.262 13.529-.767-.599 7.323.954 14.661 4.484 21.192 2.779 5.106 4.007 10.85 3.545 16.585-.461 5.734-2.595 11.233-6.159 15.875l-3.155 4.136a4.343 4.343 0 0 0-.889 1.575 4.198 4.198 0 0 0-.157 1.781c.077.598.281 1.175.601 1.694.32.519.749.971 1.26 1.325.51.355 1.092.607 1.709.738a4.815 4.815 0 0 0 3.609-.658 4.486 4.486 0 0 0 1.302-1.287l3.161-4.142c3.533-4.663 8.362-8.295 13.943-10.485a33.917 33.917 0 0 1 17.649-1.913 43.402 43.402 0 0 0 22.532-2.473c4.121 19.634 13.314 36.719 25.7 47.494a4.75 4.75 0 0 0 3.112 1.149 4.75 4.75 0 0 0 3.112-1.149c12.385-10.775 21.579-27.86 25.699-47.494a43.409 43.409 0 0 0 22.533 2.484 33.93 33.93 0 0 1 17.649 1.914c5.581 2.19 10.41 5.821 13.942 10.484l3.161 4.143c.352.478.8.884 1.318 1.196a4.754 4.754 0 0 0 1.7.617 4.84 4.84 0 0 0 1.819-.057 4.734 4.734 0 0 0 1.654-.723 4.493 4.493 0 0 0 1.232-1.276 4.27 4.27 0 0 0 .617-1.631 4.18 4.18 0 0 0-.092-1.731 4.306 4.306 0 0 0-.788-1.563l-3.155-4.148c-3.564-4.642-5.697-10.141-6.159-15.875-.462-5.735.766-11.479 3.546-16.585 3.521-6.533 5.065-13.871 4.458-21.192 4.49.508 9.008.764 13.53.767 15.798 0 30.429-3.211 41.818-9.375a4.445 4.445 0 0 0 2.11-2.462 4.205 4.205 0 0 0-.185-3.174c-6.906-14.554-21.118-28.165-39.439-37.961ZM299.1 150.93c6.204 5.986 14.242 9.941 22.957 11.296-6.215 5.976-10.279 13.678-11.605 21.995-1.332 8.094-5.959 15.361-12.878 20.225-6.919 4.864-15.572 6.934-24.082 5.76l-42.544-5.97a28.25 28.25 0 0 0-1.199-13.434c-1.479-4.33-3.988-8.276-7.33-11.532l30.748-28.663c6.161-5.712 14.437-8.881 23.033-8.821 8.597.06 16.822 3.345 22.894 9.144h.006Zm-57.894-10.418c4.896-9.413 5.679-20.29 2.177-30.251 13.154-12.216 28.375-20.419 42.673-23.055 1.778 13.774-1.722 30.104-9.839 45.795-11.025-.094-21.639 3.979-29.519 11.325l-14.55 13.576 9.058-17.39ZM181.677 95.08c7.894-3.768 14.327-9.829 18.369-17.308 4.042 7.48 10.475 13.54 18.369 17.308 7.668 3.71 13.492 10.148 16.21 17.921s2.111 16.254-1.69 23.603l-19.108 36.707a32.418 32.418 0 0 0-13.781-3.064c-4.78 0-9.496 1.049-13.782 3.064l-19.107-36.707c-3.801-7.349-4.408-15.83-1.69-23.603 2.718-7.773 8.542-14.212 16.21-17.92Zm40.366 104.914c0 4.145-1.29 8.197-3.707 11.644-2.417 3.446-5.852 6.133-9.872 7.719a23.014 23.014 0 0 1-12.71 1.192c-4.267-.808-8.186-2.804-11.263-5.735-3.076-2.931-5.171-6.666-6.02-10.731a20.037 20.037 0 0 1 1.252-12.109c1.665-3.83 4.484-7.103 8.102-9.406 3.617-2.303 7.87-3.532 12.221-3.532 5.831.008 11.422 2.218 15.546 6.147 4.123 3.929 6.443 9.255 6.451 14.811ZM114.035 87.2c14.299 2.654 29.519 10.862 42.68 23.061-3.502 9.961-2.719 20.838 2.177 30.251l9.052 17.39-14.563-13.57c-7.879-7.346-18.494-11.419-29.518-11.326-8.106-15.696-11.605-32.031-9.828-45.806Zm-24.39 97.021c-1.326-8.317-5.389-16.019-11.604-21.995 8.715-1.355 16.753-5.31 22.957-11.296 6.072-5.8 14.299-9.087 22.897-9.147 8.598-.06 16.874 3.11 23.035 8.824l30.749 28.663c-3.342 3.256-5.851 7.202-7.33 11.532a28.262 28.262 0 0 0-1.2 13.434l-42.544 5.97c-8.51 1.174-17.162-.896-24.081-5.76-6.919-4.864-11.546-12.131-12.879-20.225Zm19.999 64.093c-18.172 2.502-35.551.627-48.755-5.238 7.066-12.14 19.962-23.395 36.21-31.551a42.5 42.5 0 0 0 14.662 6.614 43.554 43.554 0 0 0 16.204.762l20.152-2.83-18.062 9c-9.76 4.873-17.099 13.23-20.411 23.243Zm62.728 42.667-.068.041c-6.622 3.858-14.477 5.325-22.139 4.136-8.711-1.37-17.654-.07-25.54 3.715 1.34-8.315-.124-16.821-4.182-24.292-3.914-7.294-4.654-15.764-2.058-23.575 2.596-7.81 8.318-14.33 15.926-18.148l38.129-18.995c2.234 4.021 5.405 7.502 9.269 10.176a32.142 32.142 0 0 0 13.023 5.251l-7.189 40.428a30.166 30.166 0 0 1-5.16 12.202c-2.618 3.668-6.032 6.758-10.011 9.061Zm27.674 48.46c-9.938-10.153-17.183-25.317-20.294-42.56 8.975-6.096 15.05-15.333 16.893-25.687l3.401-19.165 3.407 19.136c1.842 10.353 7.914 19.589 16.887 25.686-3.112 17.244-10.356 32.407-20.294 42.59Zm79.584-64.86c-4.058 7.471-5.522 15.977-4.182 24.292-7.885-3.785-16.829-5.085-25.54-3.715-8.488 1.294-17.169-.651-24.162-5.413-6.993-4.762-11.735-11.957-13.198-20.027l-7.189-40.428a32.137 32.137 0 0 0 13.026-5.256c3.864-2.677 7.034-6.16 9.267-10.183l38.129 18.995c7.608 3.821 13.328 10.345 15.921 18.158 2.592 7.812 1.848 16.284-2.072 23.577Zm10.817-26.267c-3.315-10.015-10.658-18.372-20.423-23.243l-18.05-9 20.153 2.83c5.4.763 10.905.504 16.2-.762a42.462 42.462 0 0 0 14.66-6.614c16.253 8.15 29.149 19.411 36.216 31.551-13.192 5.865-30.571 7.74-48.756 5.238Z"/>
</svg>
